<svg width="129" height="135" version="1.1" xmlns="http://www.w3.org/2000/svg" desc="Created with imagetracer.js version 1.2.6" ><path fill="rgb(25,11,9)" stroke="rgb(25,11,9)" stroke-width="1" opacity="1" d="M 2.5 20 L 3 22.5 L 2 25.5 L 4 26.5 L 7.5 22 L 7 23.5 L 5 30.5 L 5 101.5 L 10 115.5 L 16.5 122 L 27.5 127 L 101.5 127 L 116 120 L 116 122.5 L 111 127.5 L 112.5 128 L 120.5 122 L 116.5 127 L 104.5 133 L 23.5 133 Q 12.4 129.6 6 121.5 L 1 111.5 L 0 99.5 L 1 94.5 L 0 92.5 L 1 91.5 L 1 22.5 L 2.5 20 Z " /><path fill="rgb(25,11,9)" stroke="rgb(25,11,9)" stroke-width="1" opacity="1" d="M 40.5 52 L 41 84.5 L 45.5 91 Q 48.5 94 54.5 94 L 80.5 81 L 80.5 82 L 79 82.5 L 80 84.5 L 56.5 98 Q 51.1 101.1 41.5 100 L 36 95.5 L 34 92.5 L 34 72.5 L 35 71.5 L 36 58.5 L 40.5 52 Z " /><path fill="rgb(25,11,9)" stroke="rgb(25,11,9)" stroke-width="1" opacity="1" d="M 122.5 119 L 121.5 121 L 122.5 119 Z " /><path fill="rgb(39,25,23)" stroke="rgb(39,25,23)" stroke-width="1" opacity="1" d="M 12.5 7 L 14 7.5 L 8 12.5 L 6 18 L 11.5 15 L 11 16.5 L 3.5 27 L 2 23.5 Q 3.9 11.9 12.5 7 Z " /><path fill="rgb(39,25,23)" stroke="rgb(39,25,23)" stroke-width="1" opacity="1" d="M 0.5 31 L 1 91.5 L 0 91.5 L 0.5 31 Z " /><path fill="rgb(39,25,23)" stroke="rgb(39,25,23)" stroke-width="1" opacity="1" d="M 40.5 49 L 41 51.5 L 38 54.5 L 35 62.5 L 34 92.5 L 38.5 98 Q 41.7 101.8 50.5 100 L 64.5 94 L 67.5 91 Q 75.3 89.3 80 84.5 L 79 82.5 Q 80.4 79.4 85.5 80 Q 87.8 80.8 87 84.5 L 84.5 89 Q 82.3 88.3 83 90.5 L 76 95.5 Q 76.8 98.1 73.5 97 L 70.5 100 L 67.5 100 L 63.5 103 L 55.5 106 Q 49.3 104.3 47.5 107 L 33.5 102 L 30 98.5 L 29.5 97 L 28 97.5 L 29 95.5 L 28 94.5 L 28 84.5 L 28 80.5 L 30 74.5 L 31 60.5 L 34 52 L 40.5 49 Z " /><path fill="rgb(39,25,23)" stroke="rgb(39,25,23)" stroke-width="1" opacity="1" d="M 0.5 94 L 1 98.5 L 0 98.5 L 0.5 94 Z " /><path fill="rgb(39,25,23)" stroke="rgb(39,25,23)" stroke-width="1" opacity="1" d="M 126.5 109 L 127 111.5 L 124 119 L 121 120.5 L 121.5 122 L 111.5 128 L 116 122.5 L 115 119.5 L 121.5 110 L 122.5 117 L 126.5 109 Z " /><path fill="rgb(44,31,29)" stroke="rgb(44,31,29)" stroke-width="1" opacity="1" d="M 17.5 4 L 19 4.5 L 13.5 7 L 13.5 6 L 17.5 4 Z " /><path fill="rgb(44,31,29)" stroke="rgb(44,31,29)" stroke-width="1" opacity="1" d="M 12.5 8 L 10 11.5 L 10.5 13 L 17.5 10 L 15.5 13 L 6 18 Q 7.1 11.4 12.5 8 Z " /><path fill="rgb(44,31,29)" stroke="rgb(44,31,29)" stroke-width="1" opacity="1" d="M 64.5 26 L 72 26.5 L 69.5 28 L 66.5 27 L 64.5 28 L 52.5 28 L 38 31.5 L 43 32.5 L 36.5 36 Q 33.5 34.5 36.5 33 L 38 32.5 L 34.5 32 Q 33.3 35 29 34 L 28.5 36 L 26 34.5 L 27 32 L 37.5 28 L 41.5 28 L 43.5 28 L 48.5 27 L 63.5 27 L 64.5 26 Z " /><path fill="rgb(44,31,29)" stroke="rgb(44,31,29)" stroke-width="1" opacity="1" d="M 78.5 26 L 79.5 27 L 92.5 28 L 98 31.5 L 96.5 32 L 90.5 29 L 77 27.5 L 78.5 26 Z " /><path fill="rgb(44,31,29)" stroke="rgb(44,31,29)" stroke-width="1" opacity="1" d="M 99.5 32 L 102.5 36 L 99.5 32 Z " /><path fill="rgb(44,31,29)" stroke="rgb(44,31,29)" stroke-width="1" opacity="1" d="M 37.5 44 L 39 44.5 L 31 54.5 Q 31.3 61.3 28 64.5 L 29 66.5 L 25.5 75 L 25 68.5 L 28 63.5 Q 27.3 56.8 30 53.5 L 37.5 44 Z " /><path fill="rgb(44,31,29)" stroke="rgb(44,31,29)" stroke-width="1" opacity="1" d="M 90.5 81 L 91 84.5 L 87 92.5 L 88 95 L 78 100 Q 79.1 102.7 76.5 102 L 73 103 L 71.5 106 L 67.5 107 L 67 104 L 63.5 105 L 64.5 103 L 70 102 Q 68.8 99 72.5 100 L 79 96 Q 77.9 93.3 80.5 94 Q 87.2 89.2 90.5 81 Z " /><path fill="rgb(44,31,29)" stroke="rgb(44,31,29)" stroke-width="1" opacity="1" d="M 123.5 103 Q 127.5 103.5 127 108.5 L 124 115.5 L 124.5 117 L 122 116.5 Q 120.9 107.9 123.5 103 Z " /><path fill="rgb(64,23,14)" stroke="rgb(64,23,14)" stroke-width="1" opacity="1" d="M 39.5 18 L 42.5 19 L 44.5 19 L 71.5 19 L 73.5 20 L 76.5 19 Q 83.6 21.4 94.5 20 Q 103.6 21.9 108 28.5 Q 112 33.5 110 44.5 L 109 44.5 L 109 36.5 L 104 27 L 94.5 22 L 33.5 22 L 28.5 23 L 23.5 26 L 23 24.5 L 29.5 20 L 39.5 18 Z " /><path fill="rgb(64,23,14)" stroke="rgb(64,23,14)" stroke-width="1" opacity="1" d="M 5.5 31 L 6 101.5 L 5 101.5 L 5.5 31 Z " /><path fill="rgb(64,23,14)" stroke="rgb(64,23,14)" stroke-width="1" opacity="1" d="M 109.5 74 L 110 76.5 L 109 76.5 L 109.5 74 Z " /><path fill="rgb(64,23,14)" stroke="rgb(64,23,14)" stroke-width="1" opacity="1" d="M 109.5 82 L 110 93.5 L 109 93.5 L 109.5 82 Z " /><path fill="rgb(64,23,14)" stroke="rgb(64,23,14)" stroke-width="1" opacity="1" d="M 10.5 115 L 16.5 122 L 10.5 115 Z " /><path fill="rgb(64,23,14)" stroke="rgb(64,23,14)" stroke-width="1" opacity="1" d="M 113.5 120 L 112.5 122 L 113.5 120 Z " /><path fill="rgb(64,23,14)" stroke="rgb(64,23,14)" stroke-width="1" opacity="1" d="M 18.5 122 L 19.5 124 L 18.5 122 Z " /><path fill="rgb(64,23,14)" stroke="rgb(64,23,14)" stroke-width="1" opacity="1" d="M 110.5 122 L 109.5 124 L 110.5 122 Z " /><path fill="rgb(64,23,14)" stroke="rgb(64,23,14)" stroke-width="1" opacity="1" d="M 27.5 126 L 33 126.5 L 27.5 127 L 27.5 126 Z " /><path fill="rgb(64,23,14)" stroke="rgb(64,23,14)" stroke-width="1" opacity="1" d="M 99.5 126 L 102 126.5 L 99.5 127 L 99.5 126 Z " /><path fill="rgb(46,35,33)" stroke="rgb(46,35,33)" stroke-width="1" opacity="1" d="M 28.5 1 L 33 1.5 L 28.5 2 L 28.5 1 Z " /><path fill="rgb(46,35,33)" stroke="rgb(46,35,33)" stroke-width="1" opacity="1" d="M 23.5 2 L 26 2.5 L 25.5 4 Q 31 3 32 6.5 L 22.5 8 L 18.5 11 L 15.5 10 L 10.5 13 L 10 11.5 Q 13.4 6.5 19 5 L 19.5 3 L 21.5 3 L 23.5 2 Z " /><path fill="rgb(46,35,33)" stroke="rgb(46,35,33)" stroke-width="1" opacity="1" d="M 10.5 8 L 7.5 12 L 10.5 8 Z " /><path fill="rgb(46,35,33)" stroke="rgb(46,35,33)" stroke-width="1" opacity="1" d="M 62.5 28 L 72.5 29 L 74.5 28 L 75.5 29 L 84.5 29 L 93.5 31 L 103 39.5 L 106 49.5 L 106 59.5 L 105 60.5 L 105 71.5 L 103 76.5 L 104 78.5 L 102 84.5 Q 104.5 86 101 87.5 Q 100.6 96.6 94.5 100 Q 89 101.5 87.5 99 Q 86.3 101.2 85 98.5 L 87 97.5 L 86 95 L 88 95.5 L 87.5 97 L 90 95.5 Q 90.8 93.3 88.5 94 L 89 92.5 L 89 89.5 L 94 79.5 L 94 75.5 L 100 63.5 Q 97.5 62 99 56.5 L 101 48.5 L 100 43.5 L 94.5 37 L 90 36 Q 91.1 33.3 88.5 34 L 85.5 35 L 83.5 35 L 76.5 34 L 73.5 37 L 71.5 37 L 66.5 36 L 64.5 36 L 61.5 35 L 59.5 35 L 49.5 37 L 44.5 40 L 42.5 40 L 40 40 Q 41.3 43 37.5 42 L 36 45 Q 33.3 43.9 34 46.5 Q 32.2 50.7 30.5 48 L 25 49 Q 23.9 51.7 26.5 51 L 28 52.5 L 27.5 55 Q 23.8 53.8 25 57.5 Q 21.2 60.7 21.5 68 L 21 55.5 L 21 51.5 L 22 48.5 Q 19.3 46.8 21 40.5 L 22 40.5 L 22 43 Q 25 41.8 24 45.5 L 27.5 47 L 26.5 45 Q 24.3 45.8 25 43.5 L 28.5 37 L 35.5 33 L 36.5 36 L 43 32.5 Q 42.4 29.8 48.5 31 L 53.5 29 L 61.5 29 L 62.5 28 Z " /><path fill="rgb(46,35,33)" stroke="rgb(46,35,33)" stroke-width="1" opacity="1" d="M 126.5 77 L 128 106 L 124 103.5 L 123 93.5 L 124 90.5 L 124.5 79 L 126 79.5 L 126.5 77 Z " /><path fill="rgb(46,35,33)" stroke="rgb(46,35,33)" stroke-width="1" opacity="1" d="M 29.5 133 L 69 133.5 L 29.5 134 L 29.5 133 Z " /><path fill="rgb(46,35,33)" stroke="rgb(46,35,33)" stroke-width="1" opacity="1" d="M 71.5 133 L 86 133.5 L 71.5 134 L 71.5 133 Z " /><path fill="rgb(46,35,33)" stroke="rgb(46,35,33)" stroke-width="1" opacity="1" d="M 87.5 133 L 92 133.5 L 87.5 134 L 87.5 133 Z " /><path fill="rgb(230,142,69)" stroke="rgb(230,142,69)" stroke-width="1" opacity="1" d="M 9.5 8 L 8.5 10 L 9.5 8 Z " /><path fill="rgb(230,142,69)" stroke="rgb(230,142,69)" stroke-width="1" opacity="1" d="M 51.5 8 L 101.5 8 Q 111.8 10.8 117 18.5 L 121 27.5 L 121 90.5 L 120 91.5 L 120 102.5 L 116 111.5 L 111.5 117 L 97.5 123 L 63.5 123 L 62.5 122 L 29.5 122 L 17 116 L 12 107.5 Q 13.2 102.8 11 101.5 L 11 30.5 Q 14.1 20.6 21.5 15 Q 26 11 34 10.5 L 33.5 9 L 50.5 9 L 51.5 8 Z M 33 14 L 21 19 L 14 28 L 12 37 L 12 99 L 15 111 Q 20 118 31 121 L 94 121 Q 95 119 101 120 L 107 117 L 114 109 L 116 100 L 116 36 L 113 26 Q 108 18 99 15 L 33 14 Z " /><path fill="rgb(230,142,69)" stroke="rgb(230,142,69)" stroke-width="1" opacity="1" d="M 118.5 8 L 119.5 10 L 118.5 8 Z " /><path fill="rgb(230,142,69)" stroke="rgb(230,142,69)" stroke-width="1" opacity="1" d="M 128.5 29 L 129 103.5 L 128 103.5 L 128.5 29 Z " /><path fill="rgb(230,142,69)" stroke="rgb(230,142,69)" stroke-width="1" opacity="1" d="M 49.5 41 L 59.5 42 L 88.5 58 L 92 61.5 L 93 68.5 L 87.5 75 L 56.5 91 L 49.5 91 L 44 86.5 L 43 84.5 L 43 47.5 L 47.5 42 L 49.5 41 Z M 47 58 L 44 63 L 44 82 L 46 85 Q 45 87 48 86 L 48 88 L 58 87 L 68 76 L 67 68 L 57 59 L 47 58 Z M 81 58 L 85 67 L 85 72 L 89 71 Q 91 69 90 64 L 83 58 L 81 58 Z " /><path fill="rgb(230,142,69)" stroke="rgb(230,142,69)" stroke-width="1" opacity="1" d="M 5.5 121 L 6.5 123 L 5.5 121 Z " /><path fill="rgb(235,228,213)" stroke="rgb(235,228,213)" stroke-width="1" opacity="1" d="M 0 0 L 128.5 0 L 129 0.5 L 129 28.5 L 128 28.5 L 127 20.5 L 118.5 8 L 104.5 1 L 23.5 1 Q 13.8 3.3 8 9.5 Q 2.6 14.6 0.5 23 L 0 0 Z " /><path fill="rgb(235,228,213)" stroke="rgb(235,228,213)" stroke-width="1" opacity="1" d="M 79.5 57 L 90 63.5 Q 90.6 68.9 89 71 L 85 72 L 85 66.5 L 79.5 57 Z " /><path fill="rgb(235,228,213)" stroke="rgb(235,228,213)" stroke-width="1" opacity="1" d="M 128.5 104 L 129 135 L 0.5 135 L 0 134.5 L 0 111.5 L 1 111.5 Q 3.4 122.6 11.5 128 L 25.5 134 L 102.5 134 Q 116.1 131.1 123 121.5 L 128 110.5 L 128.5 104 Z " /><path fill="rgb(54,45,43)" stroke="rgb(54,45,43)" stroke-width="1" opacity="1" d="M 25.5 1 Q 27 3.5 32.5 2 Q 34.3 -0.8 40.5 1 L 42.5 2 L 43.5 1 L 101.5 1 L 101.5 2 L 78 2.5 L 86.5 4 L 104.5 4 L 115.5 9 L 118 11.5 L 120 14.5 Q 126.3 20.7 128 31.5 L 128 94.5 L 127 94.5 L 126.5 77 L 125.5 80 L 124 79.5 L 123.5 88 L 123 46.5 L 124 45.5 L 124 32.5 L 121 21.5 L 116 14 L 106.5 8 L 95.5 6 L 44.5 6 L 41.5 7 L 32.5 7 Q 30.9 3 25 3.5 L 25.5 1 Z " /><path fill="rgb(54,45,43)" stroke="rgb(54,45,43)" stroke-width="1" opacity="1" d="M 0.5 25 L 1 27.5 L 0 27.5 L 0.5 25 Z " /><path fill="rgb(54,45,43)" stroke="rgb(54,45,43)" stroke-width="1" opacity="1" d="M 73.5 34 L 75.5 35 L 77.5 34 Q 78.8 36.3 83.5 35 L 85.5 35 L 90 34 Q 88.9 36.7 91.5 36 L 96 38.5 L 100 43.5 L 101 48.5 L 100 49.5 L 99 62.5 L 99 64.5 L 98 68 L 95 66.5 L 95 61.5 L 92 56 L 55 38.5 L 56 35 L 60.5 36 L 62.5 35 L 65.5 37 L 69.5 36 L 71.5 37 L 75 35.5 L 73.5 34 Z " /><path fill="rgb(54,45,43)" stroke="rgb(54,45,43)" stroke-width="1" opacity="1" d="M 18.5 42 L 19 58.5 L 18 58.5 L 18.5 42 Z " /><path fill="rgb(54,45,43)" stroke="rgb(54,45,43)" stroke-width="1" opacity="1" d="M 127.5 106 L 128 108.5 L 127 108.5 L 127.5 106 Z " /><path fill="rgb(54,45,43)" stroke="rgb(54,45,43)" stroke-width="1" opacity="1" d="M 92.5 133 L 96 133.5 L 92.5 134 L 92.5 133 Z " /><path fill="rgb(54,45,43)" stroke="rgb(54,45,43)" stroke-width="1" opacity="1" d="M 97.5 133 L 100 133.5 L 97.5 134 L 97.5 133 Z " /><path fill="rgb(47,29,26)" stroke="rgb(47,29,26)" stroke-width="1" opacity="1" d="M 49.5 25 L 90.5 26 Q 100.6 28.4 106 35.5 L 108 38.5 L 106.5 43 L 105 37 Q 102.3 38.1 103 35.5 L 92.5 28 L 79.5 27 L 78.5 26 Q 77.3 28.3 72.5 27 Q 70.8 24.3 64.5 26 L 63.5 27 L 48.5 27 L 42.5 29 L 37.5 28 L 27 32 Q 28.1 35.3 24 34 Q 25.1 31.3 22.5 32 L 23 30.5 Q 21.8 26.8 25.5 28 L 27.5 29 L 30.5 28 Q 36.6 28.6 39.5 26 L 48.5 26 L 49.5 25 Z " /><path fill="rgb(47,29,26)" stroke="rgb(47,29,26)" stroke-width="1" opacity="1" d="M 40.5 44 L 43 44.5 L 34 52.5 L 31 60.5 L 30 73.5 L 28 80.5 L 28 84.5 L 27 93.5 L 27 95.5 Q 27.7 98.1 25 97 L 25 99.5 L 24 101.5 L 24.5 103 Q 18.9 96.6 21 82.5 L 25 78.5 L 29 65.5 L 29 63.5 L 31 54.5 L 38.5 45 L 40.5 44 Z " /><path fill="rgb(47,29,26)" stroke="rgb(47,29,26)" stroke-width="1" opacity="1" d="M 90.5 76 Q 93.3 77.3 91 78.5 Q 88.3 88.8 80.5 94 L 77.5 96 L 71.5 100 L 73.5 97 Q 76.8 98.1 76 95.5 L 83 90.5 Q 82.3 88.3 84.5 89 Q 89 84 90.5 76 Z " /><path fill="rgb(47,29,26)" stroke="rgb(47,29,26)" stroke-width="1" opacity="1" d="M 106.5 84 L 108 85.5 L 107 88.5 Q 108.3 93.8 105.5 95 L 105 89.5 L 106.5 84 Z " /><path fill="rgb(47,29,26)" stroke="rgb(47,29,26)" stroke-width="1" opacity="1" d="M 67.5 100 Q 71.3 99 70 102 L 64 103.5 L 67 104 L 66 108 L 60.5 110 L 42.5 111 L 34 109 Q 32.9 106.3 35.5 107 L 39.5 109 Q 41 105.5 42.5 108 L 50.5 108 L 63.5 103 L 67.5 100 Z " /><path fill="rgb(206,99,49)" stroke="rgb(206,99,49)" stroke-width="1" opacity="1" d="M 54.5 7 L 99 7.5 L 54.5 8 L 54.5 7 Z " /><path fill="rgb(206,99,49)" stroke="rgb(206,99,49)" stroke-width="1" opacity="1" d="M 28.5 8 L 51 8.5 L 33 9.5 L 33.5 11 Q 20.9 11.9 16 20.5 L 11 30.5 L 11 101.5 Q 13.2 102.8 12 107.5 L 17 116 L 29.5 122 L 97.5 123 Q 108 121 114 114.5 L 120 102.5 L 120 91.5 L 121 90.5 L 121 27.5 Q 118.8 17.2 111 12.5 L 118 18.5 L 122 26.5 L 122 103.5 Q 119.5 114 112.5 120 L 105.5 124 L 95.5 126 L 36.5 126 L 35.5 125 L 23.5 124 L 13 116.5 L 8 107.5 L 7 102.5 L 7 29.5 Q 9.6 18.6 17.5 13 L 28.5 8 Z " /><path fill="rgb(206,99,49)" stroke="rgb(206,99,49)" stroke-width="1" opacity="1" d="M 105.5 9 L 110 11.5 L 108.5 11 Q 104.8 10.7 105.5 9 Z " /><path fill="rgb(206,99,49)" stroke="rgb(206,99,49)" stroke-width="1" opacity="1" d="M 32.5 14 L 62 14.5 L 32.5 15 L 32.5 14 Z " /><path fill="rgb(206,99,49)" stroke="rgb(206,99,49)" stroke-width="1" opacity="1" d="M 94.5 15 L 99 15.5 L 94.5 16 L 94.5 15 Z " /><path fill="rgb(206,99,49)" stroke="rgb(206,99,49)" stroke-width="1" opacity="1" d="M 25.5 16 L 27 16.5 L 22.5 19 L 23.5 17 L 25.5 16 Z " /><path fill="rgb(206,99,49)" stroke="rgb(206,99,49)" stroke-width="1" opacity="1" d="M 100.5 16 Q 109.1 18.4 113 25.5 L 115 32.5 L 114 32.5 Q 112.5 24 106.5 20 L 100.5 17 L 100.5 16 Z " /><path fill="rgb(206,99,49)" stroke="rgb(206,99,49)" stroke-width="1" opacity="1" d="M 20.5 19 L 17.5 23 L 20.5 19 Z " /><path fill="rgb(206,99,49)" stroke="rgb(206,99,49)" stroke-width="1" opacity="1" d="M 16.5 24 L 15.5 26 L 16.5 24 Z " /><path fill="rgb(206,99,49)" stroke="rgb(206,99,49)" stroke-width="1" opacity="1" d="M 115.5 35 L 116 99.5 L 115 99.5 L 115.5 35 Z " /><path fill="rgb(206,99,49)" stroke="rgb(206,99,49)" stroke-width="1" opacity="1" d="M 12.5 36 L 13 98.5 L 12 98.5 L 12.5 36 Z " /><path fill="rgb(206,99,49)" stroke="rgb(206,99,49)" stroke-width="1" opacity="1" d="M 50.5 40 L 56 40.5 L 50.5 41 L 50.5 40 Z " /><path fill="rgb(206,99,49)" stroke="rgb(206,99,49)" stroke-width="1" opacity="1" d="M 46.5 42 L 44 45.5 L 43.5 47 L 43 45.5 L 46.5 42 Z " /><path fill="rgb(206,99,49)" stroke="rgb(206,99,49)" stroke-width="1" opacity="1" d="M 60.5 42 L 61.5 44 L 60.5 42 Z " /><path fill="rgb(206,99,49)" stroke="rgb(206,99,49)" stroke-width="1" opacity="1" d="M 42.5 48 L 43 83.5 L 42 83.5 L 42.5 48 Z " /><path fill="rgb(206,99,49)" stroke="rgb(206,99,49)" stroke-width="1" opacity="1" d="M 82.5 54 L 83.5 56 L 82.5 54 Z " /><path fill="rgb(206,99,49)" stroke="rgb(206,99,49)" stroke-width="1" opacity="1" d="M 46.5 58 L 56.5 59 L 67 67.5 L 68 75.5 L 57.5 87 L 48 88 L 48 86 Q 45.3 87.1 46 84.5 L 44 81.5 L 44 62.5 L 46.5 58 Z " /><path fill="rgb(206,99,49)" stroke="rgb(206,99,49)" stroke-width="1" opacity="1" d="M 90.5 59 L 91.5 61 L 90.5 59 Z " /><path fill="rgb(206,99,49)" stroke="rgb(206,99,49)" stroke-width="1" opacity="1" d="M 93.5 64 L 94 68.5 L 90.5 74 L 56.5 92 L 49.5 92 L 43 86.5 L 43.5 85 L 47.5 90 L 56.5 91 L 87.5 75 L 92 70.5 L 93.5 64 Z " /><path fill="rgb(206,99,49)" stroke="rgb(206,99,49)" stroke-width="1" opacity="1" d="M 13.5 103 L 14 105.5 L 13 105.5 L 13.5 103 Z " /><path fill="rgb(206,99,49)" stroke="rgb(206,99,49)" stroke-width="1" opacity="1" d="M 114.5 103 L 115 105.5 L 114 105.5 L 114.5 103 Z " /><path fill="rgb(206,99,49)" stroke="rgb(206,99,49)" stroke-width="1" opacity="1" d="M 113.5 107 L 114 108.5 L 112 109.5 L 113.5 107 Z " /><path fill="rgb(206,99,49)" stroke="rgb(206,99,49)" stroke-width="1" opacity="1" d="M 15.5 110 L 21.5 117 L 15.5 110 Z " /><path fill="rgb(206,99,49)" stroke="rgb(206,99,49)" stroke-width="1" opacity="1" d="M 111.5 111 L 106.5 117 L 111.5 111 Z " /><path fill="rgb(206,99,49)" stroke="rgb(206,99,49)" stroke-width="1" opacity="1" d="M 27.5 119 L 30.5 120 L 94 120.5 L 30.5 121 L 27.5 120 L 27.5 119 Z " /><path fill="rgb(206,99,49)" stroke="rgb(206,99,49)" stroke-width="1" opacity="1" d="M 97.5 119 L 101 119.5 L 97.5 120 L 97.5 119 Z " /><path fill="rgb(137,53,30)" stroke="rgb(137,53,30)" stroke-width="1" opacity="1" d="M 30.5 7 L 54 7.5 L 30.5 8 L 30.5 7 Z " /><path fill="rgb(137,53,30)" stroke="rgb(137,53,30)" stroke-width="1" opacity="1" d="M 25.5 8 L 28 8.5 Q 17.2 10.7 12 18.5 L 7.5 29 L 7 26.5 Q 9.3 18.8 14.5 14 L 25.5 8 Z " /><path fill="rgb(137,53,30)" stroke="rgb(137,53,30)" stroke-width="1" opacity="1" d="M 114.5 14 L 115.5 16 L 114.5 14 Z " /><path fill="rgb(137,53,30)" stroke="rgb(137,53,30)" stroke-width="1" opacity="1" d="M 30.5 15 L 93.5 15 L 103.5 18 L 111 24.5 L 115 33.5 L 115 102.5 Q 113 112.5 105.5 117 L 96.5 120 L 30.5 120 Q 19.8 117.7 15 109.5 L 13 102.5 L 13 32.5 Q 14.9 23.4 21.5 19 L 30.5 15 Z M 33 17 L 25 20 Q 17 25 15 37 L 15 97 L 17 106 L 20 111 L 31 117 L 50 117 L 51 118 L 54 117 L 57 118 L 89 118 Q 90 115 97 117 L 105 113 Q 111 109 112 101 L 112 33 L 108 25 L 99 18 Q 94 19 93 17 L 33 17 Z " /><path fill="rgb(137,53,30)" stroke="rgb(137,53,30)" stroke-width="1" opacity="1" d="M 6.5 30 L 7 102.5 Q 9 113 15.5 119 L 26 124.5 L 23.5 125 Q 15.8 121.8 11 115.5 L 8 110.5 L 6 102.5 L 6.5 30 Z " /><path fill="rgb(137,53,30)" stroke="rgb(137,53,30)" stroke-width="1" opacity="1" d="M 122.5 30 L 123 101.5 L 122 101.5 L 122.5 30 Z " /><path fill="rgb(137,53,30)" stroke="rgb(137,53,30)" stroke-width="1" opacity="1" d="M 45.5 42 L 43.5 45 L 45.5 42 Z " /><path fill="rgb(137,53,30)" stroke="rgb(137,53,30)" stroke-width="1" opacity="1" d="M 41.5 49 L 42 81.5 L 41 81.5 L 41.5 49 Z " /><path fill="rgb(137,53,30)" stroke="rgb(137,53,30)" stroke-width="1" opacity="1" d="M 93.5 69 L 94 70.5 L 92 71.5 L 93.5 69 Z " /><path fill="rgb(137,53,30)" stroke="rgb(137,53,30)" stroke-width="1" opacity="1" d="M 89.5 74 L 88.5 76 L 89.5 74 Z " /><path fill="rgb(137,53,30)" stroke="rgb(137,53,30)" stroke-width="1" opacity="1" d="M 76.5 81 L 75.5 83 L 67.5 87 L 68.5 85 L 76.5 81 Z " /><path fill="rgb(137,53,30)" stroke="rgb(137,53,30)" stroke-width="1" opacity="1" d="M 43.5 87 L 49 91.5 L 47.5 92 L 43.5 87 Z " /><path fill="rgb(137,53,30)" stroke="rgb(137,53,30)" stroke-width="1" opacity="1" d="M 61.5 89 L 60.5 91 L 57.5 92 L 57.5 91 L 61.5 89 Z " /><path fill="rgb(137,53,30)" stroke="rgb(137,53,30)" stroke-width="1" opacity="1" d="M 50.5 92 L 56 92.5 L 50.5 93 L 50.5 92 Z " /><path fill="rgb(137,53,30)" stroke="rgb(137,53,30)" stroke-width="1" opacity="1" d="M 121.5 104 L 122 107.5 Q 119.2 116.2 112.5 121 L 102.5 126 L 96.5 126 L 96.5 125 L 105.5 124 L 116 116.5 L 121 107.5 L 121.5 104 Z " /><path fill="rgb(137,53,30)" stroke="rgb(137,53,30)" stroke-width="1" opacity="1" d="M 27.5 125 L 36 125.5 L 27.5 126 L 27.5 125 Z " /><path fill="rgb(48,33,30)" stroke="rgb(48,33,30)" stroke-width="1" opacity="1" d="M 68.5 27 L 70.5 28 L 73 27 Q 74.3 30.3 69.5 29 L 68.5 27 Z " /><path fill="rgb(48,33,30)" stroke="rgb(48,33,30)" stroke-width="1" opacity="1" d="M 75 27 L 93.5 30 L 105 37 Q 107.1 40.3 106 48.5 L 105 48.5 Q 104.6 36.9 96.5 33 L 93.5 31 L 84.5 29 L 75 29 L 75 27 Z " /><path fill="rgb(48,33,30)" stroke="rgb(48,33,30)" stroke-width="1" opacity="1" d="M 52.5 28 L 62 28.5 L 53.5 29 L 41 32 Q 39.6 28 46.5 30 L 52.5 28 Z " /><path fill="rgb(48,33,30)" stroke="rgb(48,33,30)" stroke-width="1" opacity="1" d="M 23.5 32 L 24 34 L 28.5 36 L 29 34 L 32 34.5 L 27 38.5 L 27 41.5 L 25 45 Q 27.7 46.1 27 43.5 L 28 43.5 L 27 45.5 L 27.5 47 L 24 45.5 L 24 43 L 22 42.5 L 22 33.5 L 23.5 32 Z " /><path fill="rgb(48,33,30)" stroke="rgb(48,33,30)" stroke-width="1" opacity="1" d="M 34.5 32 L 37 32.5 L 33.5 34 L 34.5 32 Z " /><path fill="rgb(48,33,30)" stroke="rgb(48,33,30)" stroke-width="1" opacity="1" d="M 43.5 39 L 44 41.5 L 39.5 45 L 37.5 44 L 29 55.5 L 28 63.5 L 25 68.5 L 25 78.5 L 21.5 82 L 21 80.5 L 21 78.5 L 22 62.5 L 25 55 L 28 54.5 L 26.5 51 Q 23.9 51.7 25 49 L 30.5 48 Q 32.2 50.7 34 46.5 L 36 43.5 L 40 42 Q 38.8 39 42.5 40 L 43.5 39 Z " /><path fill="rgb(48,33,30)" stroke="rgb(48,33,30)" stroke-width="1" opacity="1" d="M 105.5 60 L 106 69.5 L 107 70.5 Q 104.8 71.8 106 76.5 Q 108.5 78 107 83.5 L 105 89.5 L 105 95.5 L 103 100 L 93.5 106 L 85.5 109 L 83.5 109 L 63 108.5 L 66 108 L 66.5 106 L 68.5 106 Q 72.3 106.8 73 104.5 Q 72.2 101.9 75.5 103 L 78 102 Q 76.9 99.3 79.5 100 L 85.5 96 Q 86.8 98.3 88 95.5 Q 87.3 92.9 90 94 L 88.5 97 L 85 98.5 L 88.5 100 Q 97.5 101.5 99 95.5 L 101 87.5 L 103 85.5 L 102 83.5 L 104 77.5 L 104 75.5 L 105.5 60 Z " /><path fill="rgb(48,33,30)" stroke="rgb(48,33,30)" stroke-width="1" opacity="1" d="M 92.5 77 Q 95.1 76.2 94 79.5 L 90.5 87 L 90 85.5 Q 92.5 84 91 78.5 L 92.5 77 Z " /><path fill="rgb(48,33,30)" stroke="rgb(48,33,30)" stroke-width="1" opacity="1" d="M 88.5 90 L 89 93 L 87 92.5 L 88.5 90 Z " /><path fill="rgb(76,31,22)" stroke="rgb(76,31,22)" stroke-width="1" opacity="1" d="M 11.5 17 L 10.5 19 L 11.5 17 Z " /><path fill="rgb(76,31,22)" stroke="rgb(76,31,22)" stroke-width="1" opacity="1" d="M 32.5 17 L 92.5 17 Q 93.8 19.3 98.5 18 L 108 24.5 L 112 32.5 L 112 100.5 Q 110.5 109 104.5 113 L 92.5 114 L 91.5 115 L 58.5 115 L 57.5 116 L 46.5 116 L 45.5 117 L 33.5 117 L 24.5 114 L 19 108.5 Q 14.5 104 16 93.5 L 17.5 86 L 18 97.5 Q 19.8 104.7 25.5 108 L 34.5 113 L 43.5 113 L 44.5 114 L 91.5 114 L 102 110 L 106 104.5 L 110 93.5 L 110 81.5 L 109 78.5 L 110 69.5 L 109 68.5 L 109 45.5 L 110 44.5 L 110 32.5 L 103.5 24 L 94.5 20 Q 83.6 21.4 76.5 19 L 73.5 20 L 71.5 19 L 44.5 19 L 43.5 18 L 40.5 19 L 38.5 19 Q 27.5 18.5 23 24.5 L 18.5 32 L 17 29.5 L 24.5 20 L 32.5 17 Z " /><path fill="rgb(76,31,22)" stroke="rgb(76,31,22)" stroke-width="1" opacity="1" d="M 6.5 27 L 7 29.5 L 6 29.5 L 6.5 27 Z " /><path fill="rgb(76,31,22)" stroke="rgb(76,31,22)" stroke-width="1" opacity="1" d="M 17.5 33 L 18 36.5 L 17 36.5 L 17.5 33 Z " /><path fill="rgb(76,31,22)" stroke="rgb(76,31,22)" stroke-width="1" opacity="1" d="M 52.5 39 L 56 39.5 L 52.5 40 L 52.5 39 Z " /><path fill="rgb(76,31,22)" stroke="rgb(76,31,22)" stroke-width="1" opacity="1" d="M 17.5 70 L 18 74.5 L 17 74.5 L 17.5 70 Z " /><path fill="rgb(76,31,22)" stroke="rgb(76,31,22)" stroke-width="1" opacity="1" d="M 90.5 74 L 89.5 76 L 90.5 74 Z " /><path fill="rgb(76,31,22)" stroke="rgb(76,31,22)" stroke-width="1" opacity="1" d="M 119.5 112 L 120 113.5 L 118 114.5 L 119.5 112 Z " /><path fill="rgb(76,31,22)" stroke="rgb(76,31,22)" stroke-width="1" opacity="1" d="M 116.5 117 L 114.5 120 L 116.5 117 Z " /><path fill="rgb(76,31,22)" stroke="rgb(76,31,22)" stroke-width="1" opacity="1" d="M 33.5 126 L 99 126.5 L 33.5 127 L 33.5 126 Z " /><path fill="rgb(47,26,22)" stroke="rgb(47,26,22)" stroke-width="1" opacity="1" d="M 33.5 22 L 94.5 22 L 104 27 L 109 36.5 L 106 37 L 101.5 31 L 90.5 26 L 49.5 25 L 48.5 26 L 39.5 26 L 29.5 29 L 27.5 29 L 23 27.5 L 24 25 L 33.5 22 Z " /><path fill="rgb(47,26,22)" stroke="rgb(47,26,22)" stroke-width="1" opacity="1" d="M 41.5 45 L 42 46.5 L 40 49.5 L 40.5 51 L 37.5 50 L 35 51.5 L 41.5 45 Z " /><path fill="rgb(47,26,22)" stroke="rgb(47,26,22)" stroke-width="1" opacity="1" d="M 90.5 75 L 90 76.5 L 87.5 84 L 85.5 80 L 81.5 81 L 82.5 79 L 90.5 75 Z " /><path fill="rgb(47,26,22)" stroke="rgb(47,26,22)" stroke-width="1" opacity="1" d="M 27.5 88 L 28 93.5 L 27 93.5 L 27.5 88 Z " /><path fill="rgb(47,26,22)" stroke="rgb(47,26,22)" stroke-width="1" opacity="1" d="M 52.5 93 L 55 93.5 L 52.5 94 L 52.5 93 Z " /><path fill="rgb(47,26,22)" stroke="rgb(47,26,22)" stroke-width="1" opacity="1" d="M 27 95 L 29 95.5 L 28 97.5 L 30 97.5 L 33.5 102 L 47.5 107 L 52.5 106 L 52.5 107 Q 49.3 109.3 42.5 108 Q 41 105.5 39.5 109 L 34 107 L 33.5 109 L 25 103.5 L 24 100.5 L 25 97 Q 28 98 27 95 Z " /><path fill="rgb(56,33,29)" stroke="rgb(56,33,29)" stroke-width="1" opacity="1" d="M 22.5 26 L 24 26.5 L 22 31.5 L 22 33.5 L 21 47.5 L 21 49.5 L 22 52.5 L 21 55.5 L 21 78.5 L 22 79.5 L 21 80.5 L 21 95.5 Q 22.1 102.9 27.5 106 L 36.5 110 L 49.5 111 L 50.5 110 L 60.5 110 L 61.5 109 L 83.5 109 L 84.5 108 L 86.5 108 L 91.5 107 L 103 100 L 107 93.5 Q 105.8 88.8 108 87.5 L 107 84.5 L 106 71.5 L 106 69.5 L 106 43.5 L 108.5 37 L 109 68.5 L 110 73.5 L 109 78.5 L 109 82.5 Q 110.3 92.8 108 99.5 L 102 110 L 91.5 114 L 44.5 114 L 43.5 113 L 34.5 113 Q 25.5 109.5 20 102.5 L 18 97.5 L 17 75.5 L 18 74.5 L 18 59.5 L 19 58.5 L 19 42.5 L 18 41.5 L 18 32.5 L 22.5 26 Z " /><path fill="rgb(56,33,29)" stroke="rgb(56,33,29)" stroke-width="1" opacity="1" d="M 53.5 36 L 56 36.5 L 55 39 Q 46.8 39 42.5 44 L 44 41.5 Q 43.3 39.3 45.5 40 L 53.5 36 Z " /><path fill="rgb(56,33,29)" stroke="rgb(56,33,29)" stroke-width="1" opacity="1" d="M 95.5 67 L 98 68.5 L 94 77 Q 89.9 78.7 91 74.5 Q 94.8 72.3 95.5 67 Z " /><path fill="rgb(81,51,44)" stroke="rgb(81,51,44)" stroke-width="1" opacity="1" d="M 102.5 1 Q 116.4 3.6 123 13.5 L 128 24.5 L 128 30.5 L 127 30.5 L 127 26.5 L 125 21.5 L 120 13 Q 117.3 14.1 118 11.5 L 115.5 9 L 104.5 4 L 86.5 4 L 78 2.5 L 101.5 2 L 102.5 1 Z " /><path fill="rgb(81,51,44)" stroke="rgb(81,51,44)" stroke-width="1" opacity="1" d="M 44.5 6 L 96 6.5 L 44.5 7 L 44.5 6 Z " /><path fill="rgb(81,51,44)" stroke="rgb(81,51,44)" stroke-width="1" opacity="1" d="M 27.5 7 L 30 7.5 L 27.5 8 L 27.5 7 Z " /><path fill="rgb(81,51,44)" stroke="rgb(81,51,44)" stroke-width="1" opacity="1" d="M 101.5 7 Q 107.3 7.3 110 10.5 L 108.5 10 L 101.5 8 L 101.5 7 Z " /><path fill="rgb(81,51,44)" stroke="rgb(81,51,44)" stroke-width="1" opacity="1" d="M 111.5 11 L 113.5 14 L 111.5 11 Z " /><path fill="rgb(81,51,44)" stroke="rgb(81,51,44)" stroke-width="1" opacity="1" d="M 16.5 12 L 15.5 14 L 16.5 12 Z " /><path fill="rgb(81,51,44)" stroke="rgb(81,51,44)" stroke-width="1" opacity="1" d="M 116.5 16 L 121 22.5 L 120 22.5 L 116.5 16 Z " /><path fill="rgb(81,51,44)" stroke="rgb(81,51,44)" stroke-width="1" opacity="1" d="M 122.5 26 L 123 29.5 L 122 29.5 L 122.5 26 Z " /><path fill="rgb(81,51,44)" stroke="rgb(81,51,44)" stroke-width="1" opacity="1" d="M 16 31 Q 18.7 29.9 18 32.5 L 17 36.5 L 18 37.5 L 18 63.5 L 18 65.5 L 17 68.5 L 17 70.5 L 17 92.5 L 15.5 97 L 15 36.5 L 16 31 Z " /><path fill="rgb(81,51,44)" stroke="rgb(81,51,44)" stroke-width="1" opacity="1" d="M 123.5 32 L 124 45.5 L 123 45.5 L 123.5 32 Z " /><path fill="rgb(81,51,44)" stroke="rgb(81,51,44)" stroke-width="1" opacity="1" d="M 57.5 40 L 92 56 L 95 61.5 L 95 67.5 L 94 67.5 Q 94.9 59.6 89.5 58 L 57.5 41 L 57.5 40 Z " /><path fill="rgb(81,51,44)" stroke="rgb(81,51,44)" stroke-width="1" opacity="1" d="M 122.5 102 L 123 104.5 L 122 104.5 L 122.5 102 Z " /><path fill="rgb(81,51,44)" stroke="rgb(81,51,44)" stroke-width="1" opacity="1" d="M 20.5 110 L 22.5 113 L 20.5 110 Z " /><path fill="rgb(81,51,44)" stroke="rgb(81,51,44)" stroke-width="1" opacity="1" d="M 100.5 113 L 103 113.5 L 96.5 117 Q 90.3 115.3 88.5 118 L 56.5 118 L 53.5 117 L 50.5 118 L 46 116.5 L 57.5 116 L 58.5 115 L 91.5 115 L 100.5 113 Z " /><path fill="rgb(81,51,44)" stroke="rgb(81,51,44)" stroke-width="1" opacity="1" d="M 30.5 116 L 33 116.5 L 30.5 117 L 30.5 116 Z " /><path fill="rgb(81,51,44)" stroke="rgb(81,51,44)" stroke-width="1" opacity="1" d="M 7.5 123 L 9.5 126 L 7.5 123 Z " /><path fill="rgb(81,51,44)" stroke="rgb(81,51,44)" stroke-width="1" opacity="1" d="M 120.5 123 L 117.5 127 L 120.5 123 Z " /></svg>